<svg width="76" height="74" viewBox="0 0 76 74" fill="none" xmlns="http://www.w3.org/2000/svg">
<path d="M72.1857 1.02047C71.4881 0.567713 70.7081 0.256828 69.8903 0.105581C69.0725 -0.0456669 68.233 -0.0343137 67.4196 0.138991C66.6062 0.312297 65.8349 0.644158 65.1498 1.11562C64.4647 1.58708 63.8792 2.1889 63.4267 2.8867L27.9389 57.5877L10.632 41.5855C10.0214 41.0209 9.30559 40.5821 8.5254 40.2942C7.74521 40.0062 6.91594 39.8748 6.08495 39.9073C4.40669 39.973 2.82327 40.7027 1.68303 41.9359C0.542792 43.1691 -0.0608658 44.8047 0.0048553 46.483C0.0705764 48.1613 0.800293 49.7447 2.03348 50.8849L24.7575 71.8947C24.7575 71.8947 25.4098 72.4563 25.7117 72.6526C26.4094 73.1057 27.1895 73.4168 28.0075 73.5683C28.8255 73.7197 29.6654 73.7084 30.479 73.5351C31.2927 73.3618 32.0642 73.0298 32.7494 72.5582C33.4347 72.0865 34.0203 71.4845 34.4728 70.7864L74.0519 9.77948C74.5047 9.08187 74.8156 8.30189 74.9668 7.48411C75.1181 6.66632 75.1067 5.82675 74.9334 5.01335C74.7601 4.19995 74.4282 3.42867 73.9568 2.74356C73.4853 2.05845 72.8835 1.47294 72.1857 1.02047Z" fill="black"/>
</svg>
